<svg width="25" height="24" viewBox="0 0 25 24" fill="none" xmlns="http://www.w3.org/2000/svg">
<path d="M23.9296 0H1.84965C1.31865 0 0.889648 0.429 0.889648 0.96V23.04C0.889648 23.571 1.31865 24 1.84965 24H23.9296C24.4606 24 24.8896 23.571 24.8896 23.04V0.96C24.8896 0.429 24.4606 0 23.9296 0ZM21.1576 7.005H19.2406C17.7376 7.005 17.4466 7.719 17.4466 8.769V11.082H21.0346L20.5666 14.703H17.4466V24H13.7056V14.706H10.5766V11.082H13.7056V8.412C13.7056 5.313 15.5986 3.624 18.3646 3.624C19.6906 3.624 20.8276 3.723 21.1606 3.768V7.005H21.1576Z" fill="white"/>
</svg>
